<?xml version="1.0" encoding="UTF-8" standalone="no"?><svg xmlns="http://www.w3.org/2000/svg" xmlns:xlink="http://www.w3.org/1999/xlink" contentScriptType="application/ecmascript" contentStyleType="text/css" height="415px" preserveAspectRatio="none" style="width:364px;height:415px;" version="1.1" viewBox="0 0 364 415" width="364px" zoomAndPan="magnify"><defs><filter height="300%" id="fjj4e8y6wqt95" width="300%" x="-1" y="-1"><feGaussianBlur result="blurOut" stdDeviation="2.0"/><feColorMatrix in="blurOut" result="blurOut2" type="matrix" values="0 0 0 0 0 0 0 0 0 0 0 0 0 0 0 0 0 0 .4 0"/><feOffset dx="4.0" dy="4.0" in="blurOut2" result="blurOut3"/><feBlend in="SourceGraphic" in2="blurOut3" mode="normal"/></filter></defs><g><rect fill="#FFFFFF" filter="url(#fjj4e8y6wqt95)" height="192.4844" style="stroke: #A80036; stroke-width: 1.0;" width="10" x="95.5" y="117.7988"/><rect fill="#FFFFFF" filter="url(#fjj4e8y6wqt95)" height="118.5527" style="stroke: #A80036; stroke-width: 1.0;" width="10" x="203.5" y="162.4199"/><rect fill="#FFFFFF" filter="url(#fjj4e8y6wqt95)" height="44.6211" style="stroke: #A80036; stroke-width: 1.0;" width="10" x="310" y="191.7305"/><line style="stroke: #A80036; stroke-width: 1.0; stroke-dasharray: 5.0,5.0;" x1="26" x2="26" y1="86.4883" y2="328.2832"/><line style="stroke: #A80036; stroke-width: 1.0; stroke-dasharray: 5.0,5.0;" x1="100.5" x2="100.5" y1="86.4883" y2="328.2832"/><line style="stroke: #A80036; stroke-width: 1.0; stroke-dasharray: 5.0,5.0;" x1="208.5" x2="208.5" y1="86.4883" y2="328.2832"/><line style="stroke: #A80036; stroke-width: 1.0; stroke-dasharray: 5.0,5.0;" x1="314.5" x2="314.5" y1="86.4883" y2="328.2832"/><text fill="#000000" font-family="sans-serif" font-size="14" lengthAdjust="spacingAndGlyphs" text-decoration="underline" textLength="31" x="8" y="83.5352">User</text><line style="stroke: #000000; stroke-width: 1.0;" x1="8" x2="39" y1="85.5352" y2="85.5352"/><ellipse cx="26.5" cy="13" fill="#FEFECE" filter="url(#fjj4e8y6wqt95)" rx="8" ry="8" style="stroke: #A80036; stroke-width: 2.0;"/><path d="M26.5,21 L26.5,48 M13.5,29 L39.5,29 M26.5,48 L13.5,63 M26.5,48 L39.5,63 " fill="none" filter="url(#fjj4e8y6wqt95)" style="stroke: #A80036; stroke-width: 2.0;"/><text fill="#000000" font-family="sans-serif" font-size="14" lengthAdjust="spacingAndGlyphs" text-decoration="underline" textLength="31" x="8" y="340.8184">User</text><line style="stroke: #000000; stroke-width: 1.0;" x1="8" x2="39" y1="342.8184" y2="342.8184"/><ellipse cx="26.5" cy="353.7715" fill="#FEFECE" filter="url(#fjj4e8y6wqt95)" rx="8" ry="8" style="stroke: #A80036; stroke-width: 2.0;"/><path d="M26.5,361.7715 L26.5,388.7715 M13.5,369.7715 L39.5,369.7715 M26.5,388.7715 L13.5,403.7715 M26.5,388.7715 L39.5,403.7715 " fill="none" filter="url(#fjj4e8y6wqt95)" style="stroke: #A80036; stroke-width: 2.0;"/><rect fill="#FEFECE" filter="url(#fjj4e8y6wqt95)" height="30.4883" rx="10" ry="10" style="stroke: #A80036; stroke-width: 1.5;" width="84" x="56.5" y="51"/><text fill="#000000" font-family="sans-serif" font-size="14" lengthAdjust="spacingAndGlyphs" text-decoration="underline" textLength="70" x="63.5" y="71.5352">First Class</text><line style="stroke: #000000; stroke-width: 1.0;" x1="63.5" x2="133.5" y1="73.5352" y2="73.5352"/><rect fill="#FEFECE" filter="url(#fjj4e8y6wqt95)" height="30.4883" rx="10" ry="10" style="stroke: #A80036; stroke-width: 1.5;" width="84" x="56.5" y="327.2832"/><text fill="#000000" font-family="sans-serif" font-size="14" lengthAdjust="spacingAndGlyphs" text-decoration="underline" textLength="70" x="63.5" y="347.8184">First Class</text><line style="stroke: #000000; stroke-width: 1.0;" x1="63.5" x2="133.5" y1="349.8184" y2="349.8184"/><rect fill="#FEFECE" filter="url(#fjj4e8y6wqt95)" height="30.4883" rx="10" ry="10" style="stroke: #A80036; stroke-width: 1.5;" width="104" x="154.5" y="51"/><text fill="#000000" font-family="sans-serif" font-size="14" lengthAdjust="spacingAndGlyphs" text-decoration="underline" textLength="90" x="161.5" y="71.5352">Second Class</text><line style="stroke: #000000; stroke-width: 1.0;" x1="161.5" x2="251.5" y1="73.5352" y2="73.5352"/><rect fill="#FEFECE" filter="url(#fjj4e8y6wqt95)" height="30.4883" rx="10" ry="10" style="stroke: #A80036; stroke-width: 1.5;" width="104" x="154.5" y="327.2832"/><text fill="#000000" font-family="sans-serif" font-size="14" lengthAdjust="spacingAndGlyphs" text-decoration="underline" textLength="90" x="161.5" y="347.8184">Second Class</text><line style="stroke: #000000; stroke-width: 1.0;" x1="161.5" x2="251.5" y1="349.8184" y2="349.8184"/><rect fill="#FEFECE" filter="url(#fjj4e8y6wqt95)" height="30.4883" rx="10" ry="10" style="stroke: #A80036; stroke-width: 1.5;" width="81" x="272.5" y="51"/><text fill="#000000" font-family="sans-serif" font-size="14" lengthAdjust="spacingAndGlyphs" text-decoration="underline" textLength="67" x="279.5" y="71.5352">Last Class</text><line style="stroke: #000000; stroke-width: 1.0;" x1="279.5" x2="346.5" y1="73.5352" y2="73.5352"/><rect fill="#FEFECE" filter="url(#fjj4e8y6wqt95)" height="30.4883" rx="10" ry="10" style="stroke: #A80036; stroke-width: 1.5;" width="81" x="272.5" y="327.2832"/><text fill="#000000" font-family="sans-serif" font-size="14" lengthAdjust="spacingAndGlyphs" text-decoration="underline" textLength="67" x="279.5" y="347.8184">Last Class</text><line style="stroke: #000000; stroke-width: 1.0;" x1="279.5" x2="346.5" y1="349.8184" y2="349.8184"/><rect fill="#FFFFFF" filter="url(#fjj4e8y6wqt95)" height="192.4844" style="stroke: #A80036; stroke-width: 1.0;" width="10" x="95.5" y="117.7988"/><rect fill="#FFFFFF" filter="url(#fjj4e8y6wqt95)" height="118.5527" style="stroke: #A80036; stroke-width: 1.0;" width="10" x="203.5" y="162.4199"/><rect fill="#FFFFFF" filter="url(#fjj4e8y6wqt95)" height="44.6211" style="stroke: #A80036; stroke-width: 1.0;" width="10" x="310" y="191.7305"/><polygon fill="#A80036" points="83.5,113.7988,93.5,117.7988,83.5,121.7988,87.5,117.7988" style="stroke: #A80036; stroke-width: 1.0;"/><line style="stroke: #A80036; stroke-width: 2.0;" x1="26.5" x2="89.5" y1="117.7988" y2="117.7988"/><text fill="#000000" font-family="sans-serif" font-size="13" lengthAdjust="spacingAndGlyphs" textLength="50" x="33.5" y="113.0566">DoWork</text><polygon fill="#A80036" points="191.5,158.4199,201.5,162.4199,191.5,166.4199,195.5,162.4199" style="stroke: #A80036; stroke-width: 1.0;"/><line style="stroke: #A80036; stroke-width: 2.0;" x1="105.5" x2="197.5" y1="162.4199" y2="162.4199"/><text fill="#000000" font-family="sans-serif" font-size="13" lengthAdjust="spacingAndGlyphs" textLength="40" x="112.5" y="142.3672">Create</text><text fill="#000000" font-family="sans-serif" font-size="13" lengthAdjust="spacingAndGlyphs" textLength="50" x="112.5" y="157.6777">Request</text><polygon fill="#A80036" points="298,187.7305,308,191.7305,298,195.7305,302,191.7305" style="stroke: #A80036; stroke-width: 1.0;"/><line style="stroke: #A80036; stroke-width: 2.0;" x1="213.5" x2="304" y1="191.7305" y2="191.7305"/><text fill="#000000" font-family="sans-serif" font-size="13" lengthAdjust="spacingAndGlyphs" textLength="50" x="220.5" y="186.9883">DoWork</text><polygon fill="#A80036" points="224.5,232.3516,214.5,236.3516,224.5,240.3516,220.5,236.3516" style="stroke: #A80036; stroke-width: 1.0;"/><line style="stroke: #A80036; stroke-width: 2.0; stroke-dasharray: 2.0,2.0;" x1="218.5" x2="314" y1="236.3516" y2="236.3516"/><text fill="#000000" font-family="sans-serif" font-size="13" lengthAdjust="spacingAndGlyphs" textLength="65" x="230.5" y="231.6094">WorkDone</text><line style="stroke: #A80036; stroke-width: 2.0;" x1="306" x2="324" y1="227.3516" y2="245.3516"/><line style="stroke: #A80036; stroke-width: 2.0;" x1="306" x2="324" y1="245.3516" y2="227.3516"/><polygon fill="#A80036" points="116.5,276.9727,106.5,280.9727,116.5,284.9727,112.5,280.9727" style="stroke: #A80036; stroke-width: 1.0;"/><line style="stroke: #A80036; stroke-width: 2.0; stroke-dasharray: 2.0,2.0;" x1="110.5" x2="207.5" y1="280.9727" y2="280.9727"/><text fill="#000000" font-family="sans-serif" font-size="13" lengthAdjust="spacingAndGlyphs" textLength="50" x="122.5" y="260.9199">Request</text><text fill="#000000" font-family="sans-serif" font-size="13" lengthAdjust="spacingAndGlyphs" textLength="48" x="122.5" y="276.2305">Created</text><polygon fill="#A80036" points="37.5,306.2832,27.5,310.2832,37.5,314.2832,33.5,310.2832" style="stroke: #A80036; stroke-width: 1.0;"/><line style="stroke: #A80036; stroke-width: 2.0; stroke-dasharray: 2.0,2.0;" x1="31.5" x2="99.5" y1="310.2832" y2="310.2832"/><text fill="#000000" font-family="sans-serif" font-size="13" lengthAdjust="spacingAndGlyphs" textLength="33" x="43.5" y="305.541">Done</text><!--
@startuml

skinparam sequenceArrowThickness 2
skinparam roundcorner 20
skinparam maxmessagesize 60
skinparam sequenceParticipant underline

actor User
participant "First Class" as A
participant "Second Class" as B
participant "Last Class" as C

User -> A: DoWork
activate A

A -> B: Create Request
activate B

B -> C: DoWork
activate C
C - -> B: WorkDone
destroy C

B - -> A: Request Created
deactivate B

A - -> User: Done
deactivate A

@enduml

PlantUML version 1.2018.12(Sun Oct 21 12:15:15 CEST 2018)
(GPL source distribution)
Java Runtime: Java(TM) SE Runtime Environment
JVM: Java HotSpot(TM) 64-Bit Server VM
Java Version: 1.8.0_201-b09
Operating System: Mac OS X
OS Version: 10.14.3
Default Encoding: UTF-8
Language: en
Country: SI
--></g></svg>